<svg xmlns="http://www.w3.org/2000/svg" viewBox="0 0 48 48"><defs><style>.cls-1{fill:#b12323;}.cls-2{fill:#fff;}</style></defs><title>Googleplus-logo-48x48</title><g id="Lag_2" data-name="Lag 2"><g id="Google_" data-name="Google +"><circle class="cls-1" cx="24" cy="24" r="24"/><path class="cls-2" d="M23,30.44c.25,1.89-.76,3.39-4,3.54C16,34.11,14,32.73,14,30.82s2-3.16,4.55-3.28a3.42,3.42,0,0,1,2,.38c.76.51,1.37,1.06,1.64,1.26A1.68,1.68,0,0,1,23,30.44ZM21.85,24c-.63-1,.42-1.6.88-2,1.39-1.26,2.19-2.38,2.27-3.79a5.31,5.31,0,0,0-.51-3.28c-.25-.58-.63-.63-.63-.76s.13.13,1-.38a15.57,15.57,0,0,0,1.64-1.14.63.63,0,0,0,.13-.63.69.69,0,0,0-.38-.38h-7.2a8.23,8.23,0,0,0-4.8,1.52,5.81,5.81,0,0,0-2.4,4.29,5.56,5.56,0,0,0,2.53,5.05c2.53,1.52,3.58.64,3.41,1.14a2.4,2.4,0,0,0,.25,2c.15.19-1.13,0-2.65.38a7.74,7.74,0,0,0-3,1.52,5.4,5.4,0,0,0-2.15,4c-.13,1.89,1.89,3.79,4.8,4.42,2.66.58,8.34.88,10.36-3A5.76,5.76,0,0,0,26,29.81a5.21,5.21,0,0,0-.88-2.65C24.51,26.15,22.34,24.77,21.85,24Zm-.63-4.55c-.88,3.54-3.65,1.76-4.29,1-1.52-1.77-2-5.18-.13-6.32a2.58,2.58,0,0,1,2.15,0A5.33,5.33,0,0,1,21.22,19.45Z"/><path class="cls-2" d="M30.69,21.73V17.31l.38-.38h1.64l.25.25v4.55h4.42l.38.38v1.52l-.38.38H33v4.29l-.25.38H31.07l-.38-.38V24H26.4L26,23.62V22.11c0-.13.38-.38.38-.38Z"/></g></g></svg>