<svg xmlns="http://www.w3.org/2000/svg" viewBox="0 0 48 48"><defs><style>.cls-1{fill:#6ec0fd;}.cls-2{fill:#fff;}</style></defs><title>Twitter-logo-48x48</title><g id="Lag_2" data-name="Lag 2"><g id="Twitter"><circle class="cls-1" cx="24" cy="24" r="24"/><path class="cls-2" d="M12.38,14.15a39.69,39.69,0,0,0,5.56,4.17c3.79,1.77,5.81,1.52,5.81,1.52A6.68,6.68,0,0,1,24.25,16a6.19,6.19,0,0,1,2.4-2.4,6.83,6.83,0,0,1,3.41-.51,6,6,0,0,1,3,1.52s.45.25,2-.38a11.84,11.84,0,0,0,1.52-.76,3.66,3.66,0,0,1-.76,1.64c-.31.37-1.39,1.39-1.39,1.39s.88-.13,1.39-.25a10.94,10.94,0,0,0,1.52-.63s0,.51-1.26,1.77c-.38.38-1.39,1.14-1.39,1.14A23.85,23.85,0,0,1,34,24c-.63,1.64-2.15,4.93-3.66,6.32a13.37,13.37,0,0,1-3.66,2.78A22.62,22.62,0,0,1,22,34.74a15,15,0,0,1-5.43,0,14.33,14.33,0,0,1-5.94-2.27,16.72,16.72,0,0,0,4.17-.25,11.81,11.81,0,0,0,4-2,8.23,8.23,0,0,1-2.27-.51,7.12,7.12,0,0,1-3-3.28s2.65.13,2.53-.13a6.93,6.93,0,0,1-3.16-1.89,7.92,7.92,0,0,1-1.52-3.66l2.53.63a5.59,5.59,0,0,1-2-2.78C11.12,16.55,12.38,14.15,12.38,14.15Z"/></g></g></svg>