<svg xmlns="http://www.w3.org/2000/svg" viewBox="0 0 190.58 94.13"><defs><style>.cls-1{fill:#ca5625;}.cls-2{opacity:0.75;}.cls-3{fill:#af221d;}.cls-4{fill:#252c3e;}</style></defs><title>PTM_logo-01-03-2017_1</title><g id="Lag_2" data-name="Lag 2"><g id="Layer_1" data-name="Layer 1"><path class="cls-1" d="M59.11,18.19A1.31,1.31,0,0,0,60.27,17a10.73,10.73,0,0,0-2.81-7.77,10.72,10.72,0,0,0-7.77-2.81,1.3,1.3,0,0,0-1.15,1.15,10.69,10.69,0,0,0,2.81,7.78,10.73,10.73,0,0,0,7.77,2.82"/><g class="cls-2"><path class="cls-3" d="M56.77,14.64a1.31,1.31,0,0,0,1.59.4,10.73,10.73,0,0,0,5.22-6.41A10.72,10.72,0,0,0,62,.52a1.31,1.31,0,0,0-1.58-.4,10.69,10.69,0,0,0-5.23,6.41,10.74,10.74,0,0,0,1.58,8.11"/></g><path class="cls-4" d="M9,25.07A8.38,8.38,0,0,1,9,41.83H3V55.07H0v-30Zm0,13.8a5.42,5.42,0,0,0,5.48-5.4A5.49,5.49,0,0,0,9,28H3V38.87Z"/><path class="cls-4" d="M37.44,55.07H22.16v-30H37.44V28H25.16v10.6H35.88v3H25.16v10.6H37.44Z"/><path class="cls-4" d="M57.72,55.47a15.4,15.4,0,1,1,15.48-15.4A15.47,15.47,0,0,1,57.72,55.47Zm0-27.88A12.48,12.48,0,1,0,70.27,40.07,12.56,12.56,0,0,0,57.72,27.59Z"/><path class="cls-4" d="M88.2,25.07a8.38,8.38,0,0,1,0,16.76h-6V55.07h-3v-30Zm0,13.8a5.42,5.42,0,0,0,5.48-5.4A5.49,5.49,0,0,0,88.2,28h-6V38.87Z"/><path class="cls-4" d="M114,55.07H101.36v-30h3V52.15H114Z"/><path class="cls-4" d="M134.48,55.07H119.2v-30h15.28V28H122.2v10.6h10.72v3H122.2v10.6h12.28Z"/><path class="cls-4" d="M18.78,66.66H10.91V93.73H8.15V66.66H.27V63.74H18.78Z"/><path class="cls-4" d="M37.86,93.73H22.59v-30H37.86v2.92H25.59v10.6H36.3v3H25.59v10.6H37.86Z"/><path class="cls-4" d="M67.26,93.73h-3.2l-2.72-6.44H46.83l-2.72,6.44H40.87l13.2-31.19Zm-7-9.16L54.06,69.9,47.95,84.57Z"/><path class="cls-4" d="M95.14,89.45A15.4,15.4,0,1,1,95.1,68l-2.12,2c-3.2-2.84-6-3.68-8.92-3.68a12.48,12.48,0,0,0,0,25c2.88,0,5.6-.84,8.92-3.68Z"/><path class="cls-4" d="M121.22,93.73h-2.84V80.22H102.75V93.73H99.91v-30h2.84V77.26h15.64V63.74h2.84Z"/><path class="cls-4" d="M168.1,93.73h-2.84v-22l-11,15.2-11-15.2v22h-2.84V62.54L154.26,81.9,168.1,62.54Z"/><path class="cls-4" d="M190.58,93.73H175.31v-30h15.28v2.92H178.3v10.6H189v3H178.3v10.6h12.28Z"/></g></g></svg>