<svg xmlns="http://www.w3.org/2000/svg" viewBox="0 0 39.19 39.19"><defs><style>.cls-1,.cls-2{fill:#4c71b1;}.cls-2{fill-rule:evenodd;}</style></defs><title>Facebook</title><g id="Lag_2" data-name="Lag 2"><g id="Facebook"><path class="cls-1" d="M38.23,13.54A19.59,19.59,0,1,1,19.59,0,19.59,19.59,0,0,1,38.23,13.54ZM19.59,1.77a17.83,17.83,0,1,0,17,12.32A17.83,17.83,0,0,0,19.59,1.77Z"/><path class="cls-2" d="M22.26,14c.53,0,1.06,0,1.6,0h.22V11.19c-.28,0-.58-.07-.88-.08-.55,0-1.09-.05-1.64,0a4,4,0,0,0-2.31.71,3.46,3.46,0,0,0-1.39,2.31,8,8,0,0,0-.1,1.19c0,.62,0,1.24,0,1.86v.23H15.12v3.09h2.63v7.76H21V20.47h2.62l.4-3.1h-3s0-1.53,0-2.19C21,14.26,21.53,14,22.26,14Z"/></g></g></svg>