<svg xmlns="http://www.w3.org/2000/svg" viewBox="0 0 39.84 39.83"><defs><style>.cls-1{fill:#1e7eba;}</style></defs><title>LinkedIn</title><g id="Lag_2" data-name="Lag 2"><g id="LinkedIn"><path class="cls-1" d="M38.86,13.76A19.92,19.92,0,1,1,19.92,0,19.92,19.92,0,0,1,38.86,13.76Zm-18.94-12A18.12,18.12,0,1,0,37.15,14.32,18.12,18.12,0,0,0,19.92,1.79Z"/><path class="cls-1" d="M13.68,16.88H17V27.41H13.68Zm1.64-5.23a1.9,1.9,0,1,1-1.9,1.9,1.9,1.9,0,0,1,1.9-1.9"/><path class="cls-1" d="M19,16.88h3.14v1.44h0a3.44,3.44,0,0,1,3.1-1.7c3.31,0,3.92,2.18,3.92,5v5.78H25.95V22.29c0-1.22,0-2.79-1.7-2.79s-2,1.33-2,2.7v5.21H19Z"/></g></g></svg>