<?xml version="1.0" encoding="utf-8"?>
<!-- Generator: Adobe Illustrator 21.0.2, SVG Export Plug-In . SVG Version: 6.00 Build 0)  -->
<svg version="1.1" id="Layer_1" xmlns="http://www.w3.org/2000/svg" xmlns:xlink="http://www.w3.org/1999/xlink" x="0px" y="0px"
	 viewBox="0 0 220 117" style="enable-background:new 0 0 220 117;" xml:space="preserve">
<style type="text/css">
	.st0{fill:#CA5625;}
	.st1{opacity:0.75;}
	.st2{fill:#AF221D;}
	.st3{fill:none;}
	.st4{fill:#252C3E;}
	.st5{font-family:'HansKendrick-Regular';}
	.st6{font-size:40px;}
</style>
<g>
	<path class="st0" d="M73.4,27.8c0.6-0.1,1.1-0.6,1.2-1.2c0,0,0.4-4.6-2.8-7.8c-3.2-3.2-7.8-2.8-7.8-2.8c-0.6,0-1.1,0.6-1.2,1.2
		c0,0-0.4,4.6,2.8,7.8C68.8,28.2,73.4,27.8,73.4,27.8"/>
</g>
<g class="st1">
	<path class="st2" d="M71,24.2c0.3,0.5,1.1,0.7,1.6,0.4c0,0,4.1-2,5.2-6.4c1.1-4.4-1.6-8.1-1.6-8.1c-0.3-0.5-1.1-0.7-1.6-0.4
		c0,0-4.1,2-5.2,6.4C68.4,20.5,71,24.2,71,24.2"/>
</g>
<rect x="10.7" y="34.7" class="st3" width="197.7" height="75.3"/>
<text transform="matrix(1 0 0 1 10.667 64.6665)" class="st4 st5 st6">PEOPLE </text>
<rect x="14.3" y="73.3" class="st3" width="221" height="48"/>
<text transform="matrix(1 0 0 1 14.3335 103.333)" class="st4 st5 st6">TEACH ME</text>
</svg>
