<?xml version="1.0" encoding="utf-8"?>
<!-- Generator: Adobe Illustrator 21.0.2, SVG Export Plug-In . SVG Version: 6.00 Build 0)  -->
<svg version="1.1" id="Layer_1" xmlns="http://www.w3.org/2000/svg" xmlns:xlink="http://www.w3.org/1999/xlink" x="0px" y="0px"
	 viewBox="0 0 114.7 117" style="enable-background:new 0 0 114.7 117;" xml:space="preserve">
<style type="text/css">
	.st0{fill:#CA5625;}
	.st1{opacity:0.75;}
	.st2{fill:#AF221D;}
	.st3{fill:none;}
	.st4{display:none;fill:#252C3E;}
	.st5{font-family:'HansKendrick-Regular';}
	.st6{font-size:40px;}
</style>
<g>
	<g>
		<path class="st0" d="M70,102.3c3-0.3,5.5-2.9,5.8-5.8c0,0,1.9-22.8-14-38.7c-16-15.9-38.7-14-38.7-14c-2.9,0.2-5.5,2.8-5.8,5.7
			c0,0-1.9,22.8,14,38.7C47.2,104.1,70,102.3,70,102.3"/>
	</g>
	<g class="st1">
		<path class="st2" d="M58.4,84.6c1.7,2.4,5.3,3.3,7.9,2c0,0,20.5-10.1,26-31.9c5.5-21.9-7.9-40.4-7.9-40.4c-1.7-2.4-5.2-3.3-7.9-2
			c0,0-20.6,10.1-26,31.9C45,66,58.4,84.6,58.4,84.6"/>
	</g>
</g>
<rect x="-42" y="34.7" class="st3" width="197.7" height="75.3"/>
<text transform="matrix(1 0 0 1 -41.9997 64.6665)" class="st4 st5 st6">PEOPLE </text>
<rect x="-38.3" y="73.3" class="st3" width="221" height="48"/>
<text transform="matrix(1 0 0 1 -38.3332 103.333)" class="st4 st5 st6">TEACH ME</text>
</svg>
