<svg xmlns="http://www.w3.org/2000/svg" viewBox="0 0 48.84 48.87"><defs><style>.cls-1,.cls-5{fill:none;}.cls-2{fill:#0a243b;}.cls-3,.cls-6{fill:#fff;}.cls-3{opacity:0;}.cls-4,.cls-7{fill:#1c283c;}.cls-5{stroke:#1c283c;stroke-miterlimit:10;stroke-width:2px;}.cls-5,.cls-6,.cls-7{isolation:isolate;}</style></defs><title>booking-blue-48x48</title><g id="Lag_2" data-name="Lag 2"><g id="Booking"><path class="cls-1" d="M21.72,7.94a1.37,1.37,0,0,0-1.37.92l0,12.58H12a1.25,1.25,0,0,0,0,2.5h9.88a1.18,1.18,0,0,0,.71-.33,1.16,1.16,0,0,0,.29-.5V8.86A1.36,1.36,0,0,0,21.72,7.94Z"/><path class="cls-2" d="M30.32,22.28h8.84c0-.21,0-.41,0-.62A17.66,17.66,0,1,0,24.32,39V28.28A6,6,0,0,1,30.32,22.28Zm-7.44.84a1.16,1.16,0,0,1-.29.5,1.18,1.18,0,0,1-.71.33H12a1.25,1.25,0,0,1,0-2.5H20.3l0-12.58a1.34,1.34,0,0,1,2.54,0Z"/><path class="cls-3" d="M42.84,22.28H39.16A17.49,17.49,0,0,1,24.32,39v3.91a6,6,0,0,0,6,6H42.84a6,6,0,0,0,6-6V28.28A6,6,0,0,0,42.84,22.28Z"/><path class="cls-3" d="M39.16,22.28H30.32a6,6,0,0,0-6,6V39A17.49,17.49,0,0,0,39.16,22.28Z"/><path class="cls-4" d="M24.14,42.71V40.8A19.49,19.49,0,1,1,41,21.5c0,.21,0,.41,0,.62h1.7l.3,0c0-.21,0-.42,0-.64A21.64,21.64,0,1,0,24.15,42.82S24.14,42.75,24.14,42.71Z"/><rect class="cls-5" x="25.92" y="23.94" width="18.77" height="18.77" rx="4" ry="4"/><path class="cls-6" d="M43.57,31.16l3.33-3.35-1.25-2.54-2.12,2.08"/><path class="cls-7" d="M34.49,36.9l-4.33-4.33L28.72,34l5.77,5.77L46.86,27.42,45.42,26Z"/></g></g></svg>