<svg xmlns="http://www.w3.org/2000/svg" viewBox="0 0 47 32.27"><defs><style>.cls-1{fill:none;stroke:#1c283c;stroke-miterlimit:10;stroke-width:3px;}.cls-2{fill:#1c283c;}</style></defs><title>Payment-blue-48x48</title><g id="Lag_2" data-name="Lag 2"><g id="Payment"><path class="cls-1" d="M40.42,1.5H6.58A5.08,5.08,0,0,0,1.5,6.58V25.7a5.08,5.08,0,0,0,5.08,5.08H40.42A5.08,5.08,0,0,0,45.5,25.7V6.58A5.08,5.08,0,0,0,40.42,1.5M43,25.7a2.62,2.62,0,0,1-2.61,2.61H6.58A2.62,2.62,0,0,1,4,25.7V12.64H43ZM43,8.93H4V6.58A2.62,2.62,0,0,1,6.58,4H40.42A2.62,2.62,0,0,1,43,6.58Z"/><path class="cls-2" d="M7.59,25.1h8.05a.28.28,0,0,0,.28-.28V23.23a.28.28,0,0,0-.28-.28H7.59a.28.28,0,0,0-.28.28v1.59a.28.28,0,0,0,.28.28"/><path class="cls-2" d="M31.23,25.1a3.4,3.4,0,0,0,2.08-.7l.15-.11.15.11a3.4,3.4,0,0,0,2.08.7,3.43,3.43,0,1,0,0-6.87,3.4,3.4,0,0,0-2.08.7l-.15.11-.15-.11a3.43,3.43,0,1,0-2.08,6.17"/></g></g></svg>