<svg xmlns="http://www.w3.org/2000/svg" viewBox="0 0 40.81 40.8"><defs><style>.cls-1{fill:#db4033;}</style></defs><title>Google +</title><g id="Lag_2" data-name="Lag 2"><g id="Google_" data-name="Google +"><path class="cls-1" d="M39.81,14.1A20.4,20.4,0,1,1,20.4,0,20.4,20.4,0,0,1,39.81,14.1ZM20.4,1.84A18.57,18.57,0,1,0,38.06,14.67,18.56,18.56,0,0,0,20.4,1.84Z"/><path class="cls-1" d="M17.57,19.18s0,.08,0,.11c0,.86,0,2.72,0,2.72h3.77a3.2,3.2,0,0,1-1.38,2.12,4,4,0,0,1-2,.66,4.14,4.14,0,0,1-1.53-.18,4.24,4.24,0,0,1-2.9-3.66,4,4,0,0,1,.09-1.28,4.16,4.16,0,0,1,4.63-3.24,3.8,3.8,0,0,1,2.07,1l2-2a8.71,8.71,0,0,0-1.25-.92,6.71,6.71,0,0,0-3.34-.91l-.67,0a5.56,5.56,0,0,0-1.16.18,7.05,7.05,0,0,0-5.33,6.43,6.67,6.67,0,0,0,.15,1.89,7,7,0,0,0,2.75,4.21,6.86,6.86,0,0,0,3.76,1.33,7.48,7.48,0,0,0,2.31-.23A6.13,6.13,0,0,0,23,25.11a7.54,7.54,0,0,0,1.21-5.93Z"/><polygon class="cls-1" points="32.7 19.27 30.32 19.27 30.32 16.88 30.32 16.81 30.25 16.81 28.46 16.81 28.39 16.81 28.39 16.88 28.39 19.27 26.01 19.27 25.94 19.27 25.94 19.34 25.94 21.12 25.94 21.19 26.01 21.19 28.39 21.19 28.39 23.58 28.39 23.65 28.46 23.65 30.25 23.65 30.32 23.65 30.32 23.58 30.32 21.19 32.7 21.19 32.77 21.19 32.77 21.12 32.77 19.34 32.77 19.27 32.7 19.27"/></g></g></svg>