<svg xmlns="http://www.w3.org/2000/svg" viewBox="0 0 40.48 40.48"><defs><style>.cls-1,.cls-2{fill:#32bbec;}.cls-2{fill-rule:evenodd;}</style></defs><title>Twitter</title><g id="Lag_2" data-name="Lag 2"><g id="Twitter"><path class="cls-1" d="M39.49,14A20.24,20.24,0,1,1,20.24,0,20.24,20.24,0,0,1,39.49,14ZM20.24,1.82A18.42,18.42,0,1,0,37.76,14.55,18.42,18.42,0,0,0,20.24,1.82Z"/><path class="cls-2" d="M17.24,24.63a3.93,3.93,0,0,1-3.65-2.72,3.89,3.89,0,0,0,1.68,0l.06,0A3.92,3.92,0,0,1,12.78,20a3.81,3.81,0,0,1-.57-2.09,3.89,3.89,0,0,0,1.75.47A3.94,3.94,0,0,1,12.34,16a3.88,3.88,0,0,1,.42-2.84,11.23,11.23,0,0,0,8.09,4.1c0-.16,0-.29-.06-.43a3.92,3.92,0,0,1,6.67-3.25.2.2,0,0,0,.21.06A7.93,7.93,0,0,0,30,12.81l.05,0h0a4,4,0,0,1-1.68,2.13,7.54,7.54,0,0,0,2.19-.59v0c-.15.2-.29.4-.45.59a7.7,7.7,0,0,1-1.43,1.36.13.13,0,0,0-.06.12,11,11,0,0,1-.07,1.74,11.56,11.56,0,0,1-1,3.49,11.28,11.28,0,0,1-2.12,3.09,10.49,10.49,0,0,1-5.39,3,11.73,11.73,0,0,1-2.18.26,11.08,11.08,0,0,1-6.28-1.68l-.09-.06a8,8,0,0,0,3.92-.54A7.82,7.82,0,0,0,17.24,24.63Z"/></g></g></svg>