<svg xmlns="http://www.w3.org/2000/svg" viewBox="0 0 48 48"><defs><style>.cls-1{fill:#3f78b8;}.cls-2{fill:#fff;}</style></defs><title>Linkedin-logo-48x48</title><g id="Lag_2" data-name="Lag 2"><g id="LinkedIn"><circle class="cls-1" cx="24" cy="24" r="24"/><path class="cls-2" d="M18.32,13.89a2.8,2.8,0,0,1-3.09,2.78,2.8,2.8,0,0,1-3.09-2.78c0-1.53,1-2.78,3.09-2.78S18.32,12.36,18.32,13.89Z"/><rect class="cls-2" x="12.38" y="18.95" width="5.43" height="16.42"/><path class="cls-2" d="M20.84,18.95"/><path class="cls-2" d="M20.84,18.95V35.24h5.43s-.13-9.85,0-10,.63-2.53,3-2.4a2.46,2.46,0,0,1,2.53,2.4l.13,10h5.43V24.76s-.25-6.19-5.81-6.19c-4.93,0-5.31,2.91-5.31,2.65V18.95Z"/></g></g></svg>