<svg xmlns="http://www.w3.org/2000/svg" viewBox="0 0 380 380"><defs><style>.cls-1{fill:#3f78b8;}.cls-2{fill:#fff;}</style></defs><title>LinkedIn-logo</title><g id="Lag_2" data-name="Lag 2"><g id="Lag_4" data-name="Lag 4"><circle class="cls-1" cx="190" cy="190" r="190"/><path class="cls-2" d="M145,110c0,12.15-9,22-24.5,22S96,122.15,96,110s8-22,24.5-22S145,97.85,145,110Z"/><rect class="cls-2" x="98" y="150" width="43" height="130"/><path class="cls-2" d="M165,150"/><path class="cls-2" d="M165,150V279h43s-1-78,0-79,5-20,24-19c20,1.05,20,19,20,19l1,79h43V196s-2-49-46-49c-39,0-42,23-42,21V150Z"/></g></g></svg>