<svg xmlns="http://www.w3.org/2000/svg" viewBox="0 0 380 380"><defs><style>.cls-1{fill:#6ec0fd;}.cls-2{fill:#fff;}</style></defs><title>Twitter-logo</title><g id="Lag_2" data-name="Lag 2"><g id="Lag_2-2" data-name="Lag 2"><circle class="cls-1" cx="190" cy="190" r="190"/><path class="cls-2" d="M98,112s27,24,44,33c30,14,46,12,46,12s-3-17,4-30a49,49,0,0,1,19-19s13-6,27-4,24,12,24,12,3.54,2,16-3c10-4,11-6,12-6a29,29,0,0,1-6,13c-2.46,2.95-11,11-11,11s7-1,11-2,12-5,12-5,0,4-10,14c-3,3-11,9-11,9s-1,30-6,43-17,39-29,50-14,14-29,22-37,13-37,13-15,4-43,0a113.41,113.41,0,0,1-47-18s18.83,1.33,33-2c17-4,32-16,32-16s-12-1-18-4c-16.64-8.32-24-26-24-26s21,1,20-1c-.45-.91-15-3-25-15s-12-29-12-29l20,5s-10-6-16-22S98,112,98,112Z"/></g></g></svg>