<svg xmlns="http://www.w3.org/2000/svg" viewBox="0 0 37.86 46.94"><defs><style>.cls-1{fill:#1c283c;}</style></defs><title>camera-blue-48x48</title><g id="Lag_2" data-name="Lag 2"><g id="camera"><path class="cls-1" d="M18.86,11.75a7.38,7.38,0,1,0,7.38,7.38,7.38,7.38,0,0,0-7.38-7.38m1.23,2.94a5.19,5.19,0,0,0-3.9,8.62,5.19,5.19,0,1,1,6.56-7.87,5.16,5.16,0,0,0-2.67-.74m8.39,24.05H23.92V37.19a18.93,18.93,0,1,0-9.43.14v1.49H10.8L2.53,45.1S.61,47.42,4.92,46.6l10.66-1a8.4,8.4,0,0,0,3.89,1.3v-.07a8.93,8.93,0,0,0,4-1.3l11.06,1c4.47.82,2.48-1.5,2.48-1.5ZM19.1,32.18a13,13,0,1,1,13-13,13,13,0,0,1-13,13"/></g></g></svg>