<svg xmlns="http://www.w3.org/2000/svg" viewBox="0 0 47.03 35.98"><defs><style>.cls-1{fill:#1c283c;}</style></defs><title>Quotemarks-blue-48x48</title><g id="Lag_2" data-name="Lag 2"><g id="Quotemarks"><path class="cls-1" d="M4.71,35.7a1.68,1.68,0,0,1-2-.15L1.55,34.17a1.63,1.63,0,0,1,.53-2.08q3-2.46,4.37-3.81a21.12,21.12,0,0,0,4-5.56c.2-.42-.31-.69-.57-.78Q0,18.75,0,10.69A10.06,10.06,0,0,1,3.19,3a11.3,11.3,0,0,1,8-3,9.79,9.79,0,0,1,7.59,3.86A11.64,11.64,0,0,1,22,11.73q0,12.4-17.3,24Zm25,0a1.68,1.68,0,0,1-2-.15l-1.11-1.38a1.63,1.63,0,0,1,.53-2.08q3-2.46,4.37-3.81a21.07,21.07,0,0,0,4-5.56c.2-.42-.31-.69-.57-.78Q25,18.75,25,10.69A10.06,10.06,0,0,1,28.21,3a11.3,11.3,0,0,1,8-3A9.79,9.79,0,0,1,43.8,3.86,11.64,11.64,0,0,1,47,11.73q0,12.4-17.3,24Zm0,0"/></g></g></svg>